<svg xmlns="http://www.w3.org/2000/svg" style="display: none;">
    <symbol id="icon-receipt-text" viewBox="0 0 24 24">
        <path d="M4 2v20l2-1 2 1 2-1 2 1 2-1 2 1 2-1 2 1V2l-2 1-2-1-2 1-2-1-2 1-2-1-2 1Z"/><path d="M14 8H8"/><path d="M16 12H8"/><path d="M13 16H8"/>
    </symbol>
    <symbol id="icon-cog">
        <path d="M12 20a8 8 0 1 0 0-16 8 8 0 0 0 0 16Z"/><path d="M12 14a2 2 0 1 0 0-4 2 2 0 0 0 0 4Z"/><path d="M12 2v2"/><path d="M12 22v-2"/><path d="m17 20.66-1-1.73"/><path d="M11 10.27 7 3.34"/><path d="m20.66 17-1.73-1"/><path d="m3.34 7 1.73 1"/><path d="M14 12h8"/><path d="M2 12h2"/><path d="m20.66 7-1.73 1"/><path d="m3.34 17 1.73-1"/><path d="m17 3.34-1 1.73"/><path d="m11 13.73-4 6.93"/>
    </symbol>
    <symbol id="icon-settings">
    <svg xmlns="http://www.w3.org/2000/svg" width="24" height="24" viewBox="0 0 24 24" fill="none" stroke="currentColor" stroke-width="2" stroke-linecap="round" stroke-linejoin="round" class="lucide lucide-settings-icon lucide-settings"><path d="M12.22 2h-.44a2 2 0 0 0-2 2v.18a2 2 0 0 1-1 1.73l-.43.25a2 2 0 0 1-2 0l-.15-.08a2 2 0 0 0-2.73.73l-.22.38a2 2 0 0 0 .73 2.73l.15.1a2 2 0 0 1 1 1.72v.51a2 2 0 0 1-1 1.74l-.15.09a2 2 0 0 0-.73 2.73l.22.38a2 2 0 0 0 2.73.73l.15-.08a2 2 0 0 1 2 0l.43.25a2 2 0 0 1 1 1.73V20a2 2 0 0 0 2 2h.44a2 2 0 0 0 2-2v-.18a2 2 0 0 1 1-1.73l.43-.25a2 2 0 0 1 2 0l.15.08a2 2 0 0 0 2.73-.73l.22-.39a2 2 0 0 0-.73-2.73l-.15-.08a2 2 0 0 1-1-1.74v-.5a2 2 0 0 1 1-1.74l.15-.09a2 2 0 0 0 .73-2.73l-.22-.38a2 2 0 0 0-2.73-.73l-.15.08a2 2 0 0 1-2 0l-.43-.25a2 2 0 0 1-1-1.73V4a2 2 0 0 0-2-2z"/><circle cx="12" cy="12" r="3"/></svg>
    </symbol>
</svg>

<settings>
<svg xmlns="http://www.w3.org/2000/svg" width="24" height="24" viewBox="0 0 24 24" fill="none" stroke="currentColor" stroke-width="2" stroke-linecap="round" stroke-linejoin="round" class="lucide lucide-calendar-cog-icon lucide-calendar-cog"><path d="m15.228 16.852-.923-.383"/><path d="m15.228 19.148-.923.383"/><path d="M16 2v4"/><path d="m16.47 14.305.382.923"/><path d="m16.852 20.772-.383.924"/><path d="m19.148 15.228.383-.923"/><path d="m19.53 21.696-.382-.924"/><path d="m20.772 16.852.924-.383"/><path d="m20.772 19.148.924.383"/><path d="M21 11V6a2 2 0 0 0-2-2H5a2 2 0 0 0-2 2v14a2 2 0 0 0 2 2h6"/><path d="M3 10h18"/><path d="M8 2v4"/><circle cx="18" cy="18" r="3"/></svg>
<svg xmlns="http://www.w3.org/2000/svg" width="24" height="24" viewBox="0 0 24 24" fill="none" stroke="currentColor" stroke-width="2" stroke-linecap="round" stroke-linejoin="round" class="lucide lucide-columns3-cog-icon lucide-columns-3-cog"><path d="M10.5 21H5a2 2 0 0 1-2-2V5a2 2 0 0 1 2-2h14a2 2 0 0 1 2 2v5.5"/><path d="m14.3 19.6 1-.4"/><path d="M15 3v7.5"/><path d="m15.2 16.9-.9-.3"/><path d="m16.6 21.7.3-.9"/><path d="m16.8 15.3-.4-1"/><path d="m19.1 15.2.3-.9"/><path d="m19.6 21.7-.4-1"/><path d="m20.7 16.8 1-.4"/><path d="m21.7 19.4-.9-.3"/><path d="M9 3v18"/><circle cx="18" cy="18" r="3"/></svg>
<svg xmlns="http://www.w3.org/2000/svg" width="24" height="24" viewBox="0 0 24 24" fill="none" stroke="currentColor" stroke-width="2" stroke-linecap="round" stroke-linejoin="round" class="lucide lucide-file-cog-icon lucide-file-cog"><path d="M14 2v4a2 2 0 0 0 2 2h4"/><path d="m2.305 15.53.923-.382"/><path d="m3.228 12.852-.924-.383"/><path d="M4.677 21.5a2 2 0 0 0 1.313.5H18a2 2 0 0 0 2-2V7l-5-5H6a2 2 0 0 0-2 2v2.5"/><path d="m4.852 11.228-.383-.923"/><path d="m4.852 16.772-.383.924"/><path d="m7.148 11.228.383-.923"/><path d="m7.53 17.696-.382-.924"/><path d="m8.772 12.852.923-.383"/><path d="m8.772 15.148.923.383"/><circle cx="6" cy="14" r="3"/></svg>
<svg xmlns="http://www.w3.org/2000/svg" width="24" height="24" viewBox="0 0 24 24" fill="none" stroke="currentColor" stroke-width="2" stroke-linecap="round" stroke-linejoin="round" class="lucide lucide-file-sliders-icon lucide-file-sliders"><path d="M15 2H6a2 2 0 0 0-2 2v16a2 2 0 0 0 2 2h12a2 2 0 0 0 2-2V7Z"/><path d="M14 2v4a2 2 0 0 0 2 2h4"/><path d="M8 12h8"/><path d="M10 11v2"/><path d="M8 17h8"/><path d="M14 16v2"/></svg>
<svg xmlns="http://www.w3.org/2000/svg" width="24" height="24" viewBox="0 0 24 24" fill="none" stroke="currentColor" stroke-width="2" stroke-linecap="round" stroke-linejoin="round" class="lucide lucide-folder-cog-icon lucide-folder-cog"><path d="M10.3 20H4a2 2 0 0 1-2-2V5a2 2 0 0 1 2-2h3.98a2 2 0 0 1 1.69.9l.66 1.2A2 2 0 0 0 12 6h8a2 2 0 0 1 2 2v3.3"/><path d="m14.305 19.53.923-.382"/><path d="m15.228 16.852-.923-.383"/><path d="m16.852 15.228-.383-.923"/><path d="m16.852 20.772-.383.924"/><path d="m19.148 15.228.383-.923"/><path d="m19.53 21.696-.382-.924"/><path d="m20.772 16.852.924-.383"/><path d="m20.772 19.148.924.383"/><circle cx="18" cy="18" r="3"/></svg>
<svg xmlns="http://www.w3.org/2000/svg" width="24" height="24" viewBox="0 0 24 24" fill="none" stroke="currentColor" stroke-width="2" stroke-linecap="round" stroke-linejoin="round" class="lucide lucide-sliders-horizontal-icon lucide-sliders-horizontal"><line x1="21" x2="14" y1="4" y2="4"/><line x1="10" x2="3" y1="4" y2="4"/><line x1="21" x2="12" y1="12" y2="12"/><line x1="8" x2="3" y1="12" y2="12"/><line x1="21" x2="16" y1="20" y2="20"/><line x1="12" x2="3" y1="20" y2="20"/><line x1="14" x2="14" y1="2" y2="6"/><line x1="8" x2="8" y1="10" y2="14"/><line x1="16" x2="16" y1="18" y2="22"/></svg>
<svg xmlns="http://www.w3.org/2000/svg" width="24" height="24" viewBox="0 0 24 24" fill="none" stroke="currentColor" stroke-width="2" stroke-linecap="round" stroke-linejoin="round" class="lucide lucide-sliders-horizontal-icon lucide-sliders-horizontal"><line x1="21" x2="14" y1="4" y2="4"/><line x1="10" x2="3" y1="4" y2="4"/><line x1="21" x2="12" y1="12" y2="12"/><line x1="8" x2="3" y1="12" y2="12"/><line x1="21" x2="16" y1="20" y2="20"/><line x1="12" x2="3" y1="20" y2="20"/><line x1="14" x2="14" y1="2" y2="6"/><line x1="8" x2="8" y1="10" y2="14"/><line x1="16" x2="16" y1="18" y2="22"/></svg>
<svg xmlns="http://www.w3.org/2000/svg" width="24" height="24" viewBox="0 0 24 24" fill="none" stroke="currentColor" stroke-width="2" stroke-linecap="round" stroke-linejoin="round" class="lucide lucide-user-cog-icon lucide-user-cog"><path d="M10 15H6a4 4 0 0 0-4 4v2"/><path d="m14.305 16.53.923-.382"/><path d="m15.228 13.852-.923-.383"/><path d="m16.852 12.228-.383-.923"/><path d="m16.852 17.772-.383.924"/><path d="m19.148 12.228.383-.923"/><path d="m19.53 18.696-.382-.924"/><path d="m20.772 13.852.924-.383"/><path d="m20.772 16.148.924.383"/><circle cx="18" cy="15" r="3"/><circle cx="9" cy="7" r="4"/></svg>
<svg xmlns="http://www.w3.org/2000/svg" width="24" height="24" viewBox="0 0 24 24" fill="none" stroke="currentColor" stroke-width="2" stroke-linecap="round" stroke-linejoin="round" class="lucide lucide-user-round-cog-icon lucide-user-round-cog"><path d="m14.305 19.53.923-.382"/><path d="m15.228 16.852-.923-.383"/><path d="m16.852 15.228-.383-.923"/><path d="m16.852 20.772-.383.924"/><path d="m19.148 15.228.383-.923"/><path d="m19.53 21.696-.382-.924"/><path d="M2 21a8 8 0 0 1 10.434-7.62"/><path d="m20.772 16.852.924-.383"/><path d="m20.772 19.148.924.383"/><circle cx="10" cy="8" r="5"/><circle cx="18" cy="18" r="3"/></svg>
