<svg xmlns="http://www.w3.org/2000/svg" style="display: none;">
    <symbol xmlns="http://www.w3.org/2000/svg" id="lucide-clipboard-list">
      <rect width="8" height="4" x="8" y="2" rx="1" ry="1"/>
      <path d="M16 4h2a2 2 0 0 1 2 2v14a2 2 0 0 1-2 2H6a2 2 0 0 1-2-2V6a2 2 0 0 1 2-2h2"/>
      <path d="M12 11h4"/>
      <path d="M12 16h4"/>
      <path d="M8 11h.01"/>
      <path d="M8 16h.01"/>
    </symbol>
    <symbol xmlns="http://www.w3.org/2000/svg" id="lucide-panels-top-left">
      <rect width="18" height="18" x="3" y="3" rx="2"/>
      <path d="M3 9h18"/>
      <path d="M9 21V9"/>
    </symbol>
    <symbol xmlns="http://www.w3.org/2000/svg" id="lucide-receipt-text">
      <path d="M4 2v20l2-1 2 1 2-1 2 1 2-1 2 1 2-1 2 1V2l-2 1-2-1-2 1-2-1-2 1-2-1-2 1Z"/>
      <path d="M14 8H8"/>
      <path d="M16 12H8"/>
      <path d="M13 16H8"/>
    </symbol>
    <symbol xmlns="http://www.w3.org/2000/svg" id="lucide-users-round">
      <path d="M18 21a8 8 0 0 0-16 0"/>
      <circle cx="10" cy="8" r="5"/>
      <path d="M22 20c0-3.37-2-6.5-4-8a5 5 0 0 0-.45-8.3"/>
    </symbol>
    <symbol xmlns="http://www.w3.org/2000/svg" id="lucide-cog">
      <path d="M12 20a8 8 0 1 0 0-16 8 8 0 0 0 0 16Z"/>
      <path d="M12 14a2 2 0 1 0 0-4 2 2 0 0 0 0 4Z"/>
      <path d="M12 2v2"/>
      <path d="M12 22v-2"/>
      <path d="m17 20.66-1-1.73"/>
      <path d="M11 10.27 7 3.34"/>
      <path d="m20.66 17-1.73-1"/>
      <path d="m3.34 7 1.73 1"/>
      <path d="M14 12h8"/>
      <path d="M2 12h2"/>
      <path d="m20.66 7-1.73 1"/>
      <path d="m3.34 17 1.73-1"/>
      <path d="m17 3.34-1 1.73"/>
      <path d="m11 13.73-4 6.93"/>
    </symbol>
    <symbol xmlns="http://www.w3.org/2000/svg" id="lucide-log-in">
      <path d="M15 3h4a2 2 0 0 1 2 2v14a2 2 0 0 1-2 2h-4"/>
      <polyline points="10 17 15 12 10 7"/>
      <line x1="15" x2="3" y1="12" y2="12"/>
    </symbol>
    <symbol xmlns="http://www.w3.org/2000/svg" id="lucide-log-out">
      <path d="M9 21H5a2 2 0 0 1-2-2V5a2 2 0 0 1 2-2h4"/>
      <polyline points="16 17 21 12 16 7"/>
      <line x1="21" x2="9" y1="12" y2="12"/>
    </symbol>
</svg>